<?xml version="1.0" encoding="UTF-8" standalone="no"?>
<svg width="146px" height="134px" viewBox="0 0 146 134" version="1.1" xmlns="http://www.w3.org/2000/svg" xmlns:xlink="http://www.w3.org/1999/xlink" xmlns:sketch="http://www.bohemiancoding.com/sketch/ns">
    <defs>
        <path id="path-1" d="M0,0.979283246 L144.465752,0.979283246 L144.465752,133.93555 L0,133.93555 L0,0.979283246 Z"></path>
        <path id="path-3" d="M0,4.22518884 L144.465752,4.22518884 L144.465752,137.181456 L0,137.181456 L0,4.22518884 Z"></path>
        <path id="path-5" d="M0,0.979283246 L144.465752,0.979283246 L144.465752,133.93555 L0,133.93555 L0,0.979283246 Z"></path>
    </defs>
    <g id="Page-1" stroke="none" stroke-width="1" fill="none" fill-rule="evenodd" sketch:type="MSPage">
        <g id="home-english" sketch:type="MSArtboardGroup" transform="translate(-301.000000, -219.000000)">
            <g id="Page-1-+-Page-1" sketch:type="MSLayerGroup" transform="translate(285.000000, 193.000000)">
                <g id="Page-1" transform="translate(16.571429, 22.000000)">
                    <g id="Group-3" transform="translate(0.000000, 3.245906)">
                        <mask id="mask-2" sketch:name="Clip 2" fill="white">
                            <use xlink:href="#path-1"></use>
                        </mask>
                        <g id="Clip-2"></g>
                        <path d="M71.1791238,68.8045387 L71.1791238,70.8851241 L70.960257,70.871406 C69.7838481,70.807388 68.7487906,70.6839247 67.7912485,70.4872979 L67.303358,70.3866982 L67.7137332,70.1077625 C68.6667156,69.4630097 69.7473703,69.0377472 70.9328987,68.8411204 L71.1791238,68.8045387 Z M71.1791238,63.2806987 L71.1791238,66.6599353 L70.9921751,66.6827989 C68.7670295,66.9571618 66.6649965,67.98145 65.0736527,69.5681821 L64.9824582,69.6596365 L64.8547859,69.6139093 C63.7695715,69.2160831 62.8439474,68.7908206 62.023197,68.3244036 L61.7997705,68.2009403 L61.9639205,68.0088863 C64.2620217,65.3064116 67.4538289,63.6327978 70.9465779,63.3035623 L71.1791238,63.2806987 Z M53.5603482,50.7926135 L52.967584,51.2270215 C52.6028061,51.492239 52.2289087,51.7666019 51.8732502,52.0592556 L51.5859875,52.3016096 L51.5358305,51.9312196 C51.412718,51.0395402 51.3306429,50.1067063 51.2987249,49.1555815 L51.280486,48.6114284 L51.6543834,49.0046819 C52.1513934,49.5122533 52.6803214,50.0106792 53.3688398,50.6188504 L53.5603482,50.7926135 Z M71.1791238,6.52873041 L70.9328987,6.49214869 C70.4860457,6.41441253 70.0391927,6.30009465 69.5695411,6.13090419 C69.537623,6.12175876 69.5011452,6.10804061 69.4646674,6.09889518 L69.3871521,6.07603161 C69.2868381,6.04859532 69.1774047,6.01658631 69.0679714,5.96628644 L68.7989476,5.84739585 L68.9995755,5.63247823 C69.6835342,4.88255294 70.3036567,4.27895453 70.8371445,3.83997387 L71.1791238,3.55646553 L71.1791238,6.52873041 Z M71.1791238,12.0479977 L70.9556973,12.0297068 C70.4997249,11.9839796 70.0300732,11.9199616 69.5604216,11.8285073 C68.1697056,11.544999 66.8200272,11.0328549 65.5524237,10.3103659 L65.3426764,10.1914753 L65.4703487,9.99484853 C66.095031,9.14432351 66.7060341,8.34867106 67.2851191,7.63075477 L67.3945525,7.49814603 L67.5450234,7.57588219 C68.1833848,7.9096904 68.8719032,8.17490788 69.58778,8.36696192 C70.0574316,8.49957066 70.5179638,8.59102497 70.9921751,8.65047026 L71.1791238,8.67333384 L71.1791238,12.0479977 Z M67.3763136,30.2245406 L67.7912485,30.2839859 C68.8445449,30.4303128 69.9160801,30.5263398 70.9784959,30.5629215 L71.1882433,30.5720669 L71.2110419,30.7778391 L71.2110419,33.9284399 L70.8645028,33.7912584 C69.4783466,33.0641967 68.3429752,31.9575996 67.5815012,30.5949305 L67.3763136,30.2245406 Z M61.211566,28.6332357 L61.5489856,28.7475536 C62.6068417,29.1316616 63.6920561,29.4563244 64.7818303,29.7123965 L64.8958234,29.7444055 L64.9323012,29.8495779 C65.8898434,32.7578248 68.1742654,35.131064 71.0423321,36.2010793 L71.1791238,36.2559519 L71.1791238,39.7677972 L70.9146598,39.6946338 C65.9400003,38.2908102 62.155429,34.0839122 61.2754021,28.9853348 L61.211566,28.6332357 Z M64.5766427,24.0147933 C65.3973931,24.2662927 66.2181435,24.4720649 67.0115356,24.6275372 C68.2198626,24.8744638 69.5193841,25.0253634 70.9784959,25.0893814 L71.1791238,25.0985268 L71.1791238,28.4640452 L70.9648168,28.4548998 C69.4920257,28.3863091 68.0921903,28.2354095 66.806348,27.9976283 C65.9810379,27.8467287 65.1238096,27.6455292 64.1799467,27.3803117 C63.1403295,27.0876579 62.1463095,26.7538497 61.2206854,26.3834598 C60.4227336,26.0633697 59.6111027,25.6975525 58.7356356,25.2585719 C58.2340659,24.9933544 57.7370559,24.7235642 57.2628445,24.4446286 L57.0986945,24.3440288 L57.1762098,24.1748384 C57.5637864,23.3334588 57.983281,22.4600702 58.4666118,21.5089454 L58.562366,21.3123187 L58.7538745,21.4266365 C58.8177106,21.4586455 58.876987,21.4998 58.9362635,21.5363817 L59.1277719,21.6552723 C59.2600039,21.7375812 59.3922359,21.8244628 59.5335874,21.9021989 C60.2631433,22.3000251 61.0337367,22.6749878 61.8271288,23.0179414 C62.684357,23.3837586 63.6099811,23.7221396 64.5766427,24.0147933 L64.5766427,24.0147933 Z M70.828025,19.6066959 L71.1791238,19.6295595 L71.1791238,22.9859324 L70.960257,22.9813597 C69.8978412,22.9264871 68.8855824,22.8121692 67.9508389,22.6429788 C66.9978564,22.4692156 66.1451879,22.2725888 65.3517959,22.0348077 C64.3760148,21.7467266 63.4321518,21.4083457 62.5475653,21.0288103 C61.8180094,20.7087202 61.0747743,20.3337576 60.2768225,19.8902042 C60.1628294,19.8216135 60.053396,19.7530228 59.9348431,19.6798593 L59.5381471,19.4420781 L59.6339013,19.2637422 C60.0670751,18.4680898 60.5276073,17.6541465 61.0884534,16.698449 L61.1933271,16.5155404 L61.6447398,16.7899033 C61.7678524,16.8722122 61.8864052,16.9453756 62.0140775,17.0139664 C62.7527529,17.4255107 63.5233463,17.7959007 64.307619,18.1159907 C65.233243,18.4955261 66.2546213,18.8201889 67.3443955,19.0808336 C68.4797669,19.3551965 69.6516161,19.5335324 70.828025,19.6066959 L70.828025,19.6066959 Z M71.1791238,14.1605921 L71.1791238,17.516965 L70.7049125,17.4895287 C70.5362027,17.4803833 70.3720526,17.4712379 70.2124622,17.4575197 C68.8627838,17.3111929 67.4811872,17.0048209 66.1178296,16.5338313 C65.201325,16.2183139 64.3349773,15.847924 63.5324658,15.4318069 C63.2041656,15.2626164 62.866746,15.0705624 62.4654902,14.8236358 L62.2831013,14.7138906 L62.3970944,14.5355547 C62.8986641,13.7399023 63.4230324,12.9305317 64.0112369,12.0662885 L64.1206702,11.9062435 L64.2893801,12.0068432 C64.9961374,12.4229603 65.6572974,12.7567685 66.3047783,13.0265587 C67.4127914,13.4838302 68.6211184,13.8176384 69.8932815,14.0142652 C70.3264553,14.0782832 70.6684347,14.1194376 70.9876154,14.1468739 L71.1791238,14.1605921 Z M69.1135686,44.8663746 L69.0725311,44.8709474 L69.0314936,44.8572292 C61.47603,42.5388626 56.1001148,35.6569262 55.6623812,27.7369835 L55.6578215,27.6958291 L55.6760604,27.6501019 C55.8265313,27.2659938 55.981562,26.8864585 56.145712,26.5114958 L56.2323468,26.2920055 L56.4420941,26.4108961 C57.1762098,26.8315859 57.9787213,27.247703 58.8997857,27.6729655 L59.009219,27.7232654 L59.0183385,27.8467287 C59.5290276,34.6875106 64.3486565,40.3302412 71.0149737,41.8986825 L71.1791238,41.9398369 L71.1791238,44.7612022 L70.5544416,44.7840658 C70.0802302,44.7977839 69.5923397,44.8206475 69.1135686,44.8663746 L69.1135686,44.8663746 Z M58.5441271,47.8294941 L58.247745,47.975821 C57.2902029,48.4468106 56.3645788,48.9589547 55.4891117,49.5031079 L55.3614394,49.580844 L55.2474463,49.4802443 C53.829372,48.2776202 52.5389699,46.9561055 51.4035985,45.5568546 L51.3488818,45.4928366 L51.3534416,45.4151005 C51.4491958,43.9655497 51.6179056,42.4931355 51.8550113,41.039012 L51.941646,40.4994316 L52.2334684,40.9567031 C53.8658498,43.5174237 55.8994869,45.7580541 58.2842228,47.6282946 L58.5441271,47.8294941 Z M64.5766427,45.6757452 C63.3181587,45.9866899 62.0779137,46.3753707 60.8923853,46.8234967 L60.7875116,46.8646512 L60.7008768,46.8006332 C57.2628445,44.4136758 54.4677334,41.1441845 52.6256047,37.3488309 L52.5891269,37.2756674 L52.6073658,37.2070767 C52.9721438,35.6523535 53.4189968,34.0564759 53.9296859,32.465171 L54.1394332,31.8112727 L54.326382,32.4697437 C55.8858077,37.924993 59.638461,42.5937352 64.6267997,45.2870644 L65.101011,45.5431365 L64.5766427,45.6757452 Z M68.8035073,50.4267963 C67.1620065,50.6417139 65.5706626,50.993813 64.0568341,51.4830935 C62.8713057,51.8717743 61.6948968,52.3610549 60.4637712,52.9737987 C59.9758806,53.2161526 59.5700652,53.4310702 59.15969,53.659706 C58.7538745,53.8929144 58.3526187,54.1398411 57.9696019,54.3913404 C56.2870635,55.4659285 54.7686752,56.6868434 53.4554746,58.0129308 L53.2274883,58.2324212 L53.1089355,57.9443401 C52.6757617,56.8651793 52.3429018,55.859182 52.0875572,54.8623301 L52.0601989,54.7388668 L52.1513934,54.6519852 C53.1590925,53.7374421 54.1303138,52.9509351 55.119774,52.2558824 C55.434395,52.0318194 55.7626952,51.8169017 56.0818759,51.6111296 L56.2232274,51.5196753 C56.692879,51.2178761 57.0576569,50.9983857 57.4087557,50.7971863 C58.4939702,50.175297 59.4925498,49.6677256 60.450092,49.2516085 C61.4623508,48.8172006 62.5110875,48.4330925 63.578063,48.1084297 C65.2788403,47.5871402 67.070812,47.221323 68.9038213,47.0109781 C69.5604216,46.9423873 70.24894,46.9103783 70.8417042,46.8875148 L71.1791238,46.8737966 L71.1791238,50.2301696 L70.9830557,50.2438877 C70.1851039,50.2804694 69.4692271,50.3399147 68.8035073,50.4267963 L68.8035073,50.4267963 Z M68.5299239,56.0009362 C67.5495831,56.179272 66.6969146,56.3804715 65.9263212,56.6228254 C65.2560417,56.8331703 64.6267997,57.0663788 64.0477147,57.3133054 C61.1021326,58.5616567 58.4164549,60.5324969 56.2870635,63.0109086 L56.1183537,63.2075353 L55.9633231,63.0063358 C55.4024769,62.2701287 54.85531,61.4287491 54.2990236,60.4227517 L54.2215083,60.2947157 L54.326382,60.1803978 C56.0864356,58.2735756 58.0972741,56.677698 60.2996211,55.4384922 C60.7692727,55.168702 61.2571632,54.9309208 61.7131357,54.7114305 C62.2831013,54.4370676 62.7983501,54.2084318 63.2908004,54.0163778 C64.9733387,53.3441886 66.7653105,52.8686262 68.6165586,52.5896906 C69.405391,52.4708 70.1759844,52.3976366 70.960257,52.3564821 L71.1791238,52.342764 L71.1791238,55.7037097 L70.9830557,55.7174278 C70.1212677,55.763155 69.3187562,55.859182 68.5299239,56.0009362 L68.5299239,56.0009362 Z M57.6321822,64.657086 C60.3953753,61.3235766 64.2255439,59.0143555 68.4159308,58.154685 C69.1454867,57.9992127 69.9525579,57.898613 70.9556973,57.8300222 L71.1791238,57.8163041 L71.1791238,61.1772498 L70.9876154,61.1909679 C66.7881091,61.5247761 62.8393877,63.5916434 60.1628294,66.8657075 L60.0397168,67.0211798 L59.8755667,66.9022892 C59.1140927,66.3261271 58.3662979,65.6630834 57.6458614,64.9314489 L57.5136294,64.7988402 L57.6321822,64.657086 Z M78.889618,10.3149386 C77.631134,11.0374276 76.2860153,11.5495717 74.8952993,11.8285073 C74.4484463,11.9199616 73.9833544,11.9839796 73.5091431,12.0297068 L73.2811568,12.0479977 L73.2811568,8.67333384 L73.4635458,8.65047026 C73.9423169,8.59102497 74.4028491,8.49957066 74.867941,8.36696192 C75.579258,8.17490788 76.2677764,7.91426312 76.9015781,7.58045491 L77.052049,7.50271875 L77.1569227,7.63532749 C77.7268882,8.3303802 78.3378913,9.12603264 78.9762528,9.99942125 L79.122164,10.2051934 L78.889618,10.3149386 Z M80.3988868,51.4830935 C78.9169763,50.9983857 77.3210728,50.6462867 75.6567733,50.4267963 C74.9864938,50.3399147 74.2751768,50.2804694 73.4817847,50.2438877 L73.2811568,50.2301696 L73.2811568,46.8737966 L73.6140167,46.8875148 C74.2113406,46.9103783 74.899859,46.9423873 75.5564594,47.0109781 C77.3712297,47.2167503 79.1586417,47.5825675 80.8776579,48.1084297 C81.9674321,48.4376652 83.0207284,48.826346 84.0101886,49.2516085 C84.9540516,49.6585802 85.9480716,50.1615788 87.0469652,50.7971863 C87.4391015,51.0212493 87.8403573,51.2681759 88.2279338,51.5196753 C88.5835924,51.7437383 88.9666092,51.9906649 89.3405066,52.2558824 C90.3254071,52.9417897 91.2966284,53.7282967 92.3088873,54.6519852 L92.4000818,54.7388668 L92.3681637,54.8623301 C92.1128191,55.8729001 91.7799592,56.8834702 91.3513451,57.9443401 L91.2282326,58.2324212 L91.0048061,58.0129308 C89.7007249,56.6959889 88.1823366,55.4750739 86.4906788,54.3867677 C86.0210272,54.0849685 85.6562492,53.8609054 85.3005907,53.6551333 C84.8582974,53.4082066 84.3932055,53.1749982 83.9965095,52.9737987 C82.7745033,52.3656276 81.5980944,51.876347 80.3988868,51.4830935 L80.3988868,51.4830935 Z M75.9257971,56.0009362 C75.1552036,55.8637547 74.3298935,55.763155 73.477225,55.7174278 L73.2811568,55.7037097 L73.2811568,52.342764 L73.5000236,52.3564821 C74.2934157,52.3976366 75.082248,52.4753727 75.8391623,52.5896906 C77.6858507,52.8686262 79.4823822,53.3441886 81.1694803,54.011805 C81.6801694,54.2175772 82.1954183,54.4416403 82.747145,54.7160032 C83.2806327,54.9675025 83.722926,55.1869928 84.1606596,55.4293468 C86.3630065,56.677698 88.373845,58.2735756 90.1338987,60.1803978 L90.2387724,60.2947157 L90.161257,60.4227517 C89.6232095,61.3967401 89.0806023,62.2426924 88.5015173,63.0063358 L88.3464867,63.2075353 L88.1777769,63.0109086 C86.0438258,60.5324969 83.358148,58.5616567 80.4080063,57.3133054 C79.7970032,57.0526606 79.1632015,56.8194522 78.5339595,56.6228254 C77.7588063,56.3758988 76.9061378,56.1746993 75.9257971,56.0009362 L75.9257971,56.0009362 Z M73.2811568,57.8163041 L73.5045833,57.8300222 C74.4849241,57.898613 75.314794,58.0037854 76.0397902,58.1501123 C80.2347367,59.0143555 84.0649053,61.3235766 86.8280984,64.657086 L86.9466512,64.7988402 L86.8098595,64.9314489 C86.1122217,65.6493652 85.3644268,66.3124089 84.5892737,66.9022892 L84.4251236,67.0211798 L84.2974513,66.8657075 C81.620893,63.5916434 77.6767313,61.5247761 73.4726653,61.1909679 L73.2811568,61.1772498 L73.2811568,57.8163041 Z M81.985671,14.8236358 C81.6528111,15.029408 81.2971526,15.2443256 80.9278149,15.4318069 C80.1253033,15.8524967 79.254396,16.2228866 78.3424511,16.538404 C76.9973323,17.0002482 75.6202955,17.3066201 74.2523782,17.4575197 C74.0882281,17.4712379 73.924078,17.4803833 73.7553682,17.4895287 L73.2765971,17.516965 L73.2492388,16.9316575 L73.2492388,14.1697375 L73.4225083,14.1468739 C73.8146446,14.1148649 74.1794226,14.0737105 74.5669991,14.0142652 C75.8300428,13.8222112 77.0338101,13.4884029 78.1555024,13.0311314 C78.8121027,12.7521958 79.468703,12.4229603 80.1663409,12.0114159 L80.330491,11.9108162 L80.4399243,12.0754339 C81.0463677,12.9625407 81.570736,13.7673386 82.0586265,14.5355547 L82.1680599,14.7184633 L81.985671,14.8236358 Z M84.4798403,19.7072956 C84.3840861,19.7667409 84.2837721,19.8307589 84.1834582,19.8902042 C83.3809467,20.3383303 82.6377116,20.713293 81.9081556,21.0288103 C81.0326885,21.4083457 80.0888256,21.7467266 79.1084848,22.0393804 C78.2831746,22.2817343 77.4350659,22.478361 76.5048821,22.6429788 C75.5701385,22.8121692 74.5624394,22.9264871 73.5000236,22.9813597 L73.2811568,22.9859324 L73.2811568,19.6295595 L73.5593,19.6112686 C74.7949854,19.5335324 75.9622749,19.3597693 77.1158852,19.0808336 C78.1874204,18.8247616 79.204239,18.5046715 80.148102,18.1159907 C80.9597329,17.7821825 81.7303264,17.4117926 82.4507629,17.0185391 C82.5784351,16.9408029 82.7061074,16.8630668 82.8337797,16.7807579 L83.2578341,16.5201131 L83.3672675,16.698449 C83.8505983,17.5215378 84.3293694,18.3629173 84.8218196,19.2637422 L84.9175738,19.4420781 L84.4798403,19.7072956 Z M87.2019958,24.4446286 C86.6958664,24.7372823 86.2079759,25.0024998 85.7155256,25.2585719 C84.8719766,25.6838344 84.0603456,26.0542243 83.2350355,26.3834598 C82.3185308,26.7538497 81.3245109,27.0876579 80.280334,27.3803117 C79.3729488,27.6363838 78.4883622,27.842156 77.6493729,27.9976283 C76.3498514,28.2399822 74.9910535,28.3908818 73.5000236,28.4548998 L73.2811568,28.4640452 L73.2811568,25.0985268 L73.477225,25.0893814 C74.9363368,25.0253634 76.2358583,24.8744638 77.448745,24.6321099 C78.2421371,24.4720649 79.0628875,24.26172 79.8836379,24.0147933 C80.8320607,23.7267123 81.7576847,23.3929041 82.6331518,23.0179414 C83.4219842,22.6795605 84.1925776,22.3045978 84.9266933,21.9021989 C85.0589253,21.8290355 85.1865976,21.7467266 85.3142699,21.6689904 L85.4693005,21.5683907 C85.5468158,21.5226635 85.6243311,21.4723637 85.7018464,21.4266365 L85.8933549,21.3123187 L85.9936688,21.5135181 C86.3949246,22.3000251 86.818979,23.1734137 87.2840709,24.1748384 L87.3661459,24.3486015 L87.2019958,24.4446286 Z M79.5234197,29.8541506 L79.5644572,29.7444055 L79.6738906,29.7123965 C80.7499856,29.4563244 81.8397598,29.1316616 82.9067353,28.7521263 L83.2441549,28.6332357 L83.1848785,28.980762 C82.2957322,34.0839122 78.5157206,38.2862375 73.5501806,39.6946338 L73.2811568,39.7677972 L73.2811568,36.2513792 L73.4179486,36.2010793 C76.2814556,35.131064 78.5658776,32.7578248 79.5234197,29.8541506 L79.5234197,29.8541506 Z M76.6690322,30.2839859 L77.0839671,30.2245406 L76.8787795,30.5949305 C76.108186,31.9621723 74.9682549,33.0733421 73.5820986,33.7958311 L73.2811568,33.9558762 L73.2811568,30.5720669 L73.4817847,30.5629215 C74.5396408,30.5263398 75.6111761,30.4303128 76.6690322,30.2839859 L76.6690322,30.2839859 Z M88.7978994,27.7324108 C88.3601659,35.6569262 82.9842506,42.5388626 75.4242274,44.8572292 L75.3831898,44.8709474 L75.3421523,44.8663746 C74.867941,44.8206475 74.3937296,44.8023566 73.9058391,44.7840658 L73.2811568,44.7612022 L73.2811568,41.9352642 L73.4453069,41.8986825 C80.1070644,40.3348139 84.9266933,34.6875106 85.4373824,27.8467287 L85.4465019,27.7232654 L85.560495,27.6729655 C86.4633204,27.2522757 87.265832,26.8407313 88.0181865,26.4108961 L88.2233741,26.2965782 L88.3145686,26.5114958 C88.474159,26.8864585 88.6337493,27.2659938 88.7842202,27.6501019 L88.8024591,27.6866836 L88.7978994,27.7324108 Z M91.8392357,37.3396854 C89.997107,41.135039 87.2065555,44.4045304 83.7639635,46.8006332 L83.672769,46.8646512 L83.5724551,46.8234967 C82.3641281,46.3662252 81.123883,45.9775444 79.8836379,45.6757452 L79.3592696,45.5431365 L79.833481,45.2870644 C84.8263793,42.5937352 88.5790326,37.9204203 90.129339,32.465171 L90.3162877,31.8067 L90.526035,32.4605983 C91.0321644,34.0244669 91.4790174,35.6157718 91.8529148,37.202504 L91.8711537,37.2710947 L91.8392357,37.3396854 Z M93.0566821,45.5568546 C91.9258704,46.9515328 90.6354684,48.2730475 89.2173941,49.4802443 L89.0988412,49.580844 L88.9711689,49.4985351 C88.0957018,48.9589547 87.1700777,48.4468106 86.2079759,47.975821 L85.9115938,47.8294941 L86.1760578,47.6282946 C88.5653535,45.7489087 90.6035503,43.5082782 92.231372,40.9567031 L92.5277541,40.4948589 L92.6098291,41.0344393 C92.8469348,42.5251445 93.0156446,43.9975588 93.1068391,45.4105277 L93.1113988,45.4882639 L93.0566821,45.5568546 Z M93.1797947,48.6114284 L93.1615558,49.1510088 C93.1296377,50.0975608 93.0475627,51.0303947 92.9244501,51.9312196 L92.8742931,52.3016096 L92.5870305,52.0592556 C92.2404914,51.7711746 91.8757135,51.5059571 91.5154952,51.2453123 L90.8999324,50.7926135 L91.0914408,50.6188504 C91.6112494,50.1524334 92.2222525,49.5945622 92.8058973,49.0001092 L93.1797947,48.6114284 Z M75.3695107,5.98000459 C75.2828759,6.01658631 75.1871217,6.0440226 75.0731286,6.07603161 L75.0138521,6.09432247 C74.9728146,6.10804061 74.9272174,6.12175876 74.8861799,6.1354769 C74.421088,6.30009465 73.974235,6.41441253 73.527382,6.49214869 L73.2811568,6.52873041 L73.2811568,3.59304725 L73.6231362,3.87198288 C74.1520642,4.31096354 74.767627,4.90541652 75.4424663,5.64162366 L75.6430941,5.86568671 L75.3695107,5.98000459 Z M82.6605102,68.2009403 L82.4370837,68.3244036 C81.6163333,68.7908206 80.6861495,69.2160831 79.6054948,69.6139093 L79.4778225,69.6596365 L79.3820682,69.5681821 C77.7952841,67.98145 75.6932511,66.9571618 73.4635458,66.6827989 L73.2811568,66.6599353 L73.2811568,63.2806987 L73.5091431,63.3035623 C77.0064518,63.6327978 80.1982589,65.3064116 82.4963601,68.0088863 L82.6605102,68.2009403 Z M77.1478032,70.3866982 L76.6690322,70.4827252 C75.7206095,70.6793519 74.685552,70.807388 73.5000236,70.871406 L73.2811568,70.8851241 L73.2811568,68.8045387 L73.527382,68.8411204 C74.7220298,69.0423199 75.8072442,69.4675824 76.7419877,70.1031898 L77.1478032,70.3866982 Z M87.8129989,20.5303844 C87.1199208,19.1448516 86.3630065,17.7364554 85.5696144,16.3417772 C81.2515553,8.78765172 75.0776883,0.97745416 72.2278605,0.97745416 C71.0742502,0.97745416 69.2184423,2.32640514 67.0115356,4.77738049 C64.4352912,7.63532749 61.3985147,11.9565434 58.8906662,16.3417772 C55.2656852,22.6887059 49.178453,35.2591 49.178453,48.1221479 C49.178453,50.0289701 49.3699614,51.9586559 49.7392991,53.8654782 C49.8487325,54.414204 49.9536061,54.8943391 50.0675992,55.3424652 C50.1952715,55.8500365 50.3503022,56.3484625 50.4779744,56.7691523 C50.8290732,57.8803221 51.2212095,58.9183284 51.6452639,59.8465896 C52.0647586,60.7611327 52.4842532,61.5659305 52.935666,62.3067104 C53.414437,63.0977901 53.9935221,63.9117334 54.7139585,64.8034129 C55.252006,65.4710293 55.8402105,66.1203549 56.460333,66.7239533 C57.1762098,67.4281514 57.9285643,68.077477 58.6945981,68.6490664 C59.424154,69.1932195 60.1035529,69.6459183 60.7783922,70.0300264 C61.5945829,70.501016 62.4518111,70.9217058 63.4047935,71.3103866 C64.1617078,71.6167586 64.9824582,71.8956942 65.8351267,72.1334754 C67.4583886,72.5861742 69.1865242,72.8651098 70.9830557,72.9565641 L71.1791238,72.9611368 L71.1791238,81.0548427 C71.1791238,81.6355776 71.6533352,82.1065672 72.2278605,82.1065672 C72.8115052,82.1065672 73.2811568,81.6355776 73.2811568,81.0548427 L73.2811568,72.9611368 L73.4817847,72.9565641 C74.2614976,72.9154097 75.0731286,72.8285281 75.944036,72.7004921 C76.1811416,72.6639103 76.4091279,72.6136105 76.605196,72.572456 L77.0246907,72.4810017 C77.4761034,72.3941201 77.9001578,72.3118113 78.310533,72.2020661 C78.3652497,72.188348 78.4245261,72.1746298 78.4838025,72.1654844 C78.5157206,72.1563389 78.5521984,72.1471935 78.5886762,72.1426208 L78.6205943,72.1334754 C78.7482665,72.1014664 78.8713791,72.0557392 78.9899319,72.0145848 L79.0811264,71.9780031 C79.1905598,71.9414213 79.2999932,71.9002669 79.4139863,71.8636852 L79.5644572,71.817958 C79.8927574,71.7127856 80.230177,71.6030404 80.5539175,71.4750044 C80.6359925,71.4475681 80.7135078,71.4201318 80.7910231,71.3972682 C80.8822176,71.3744047 80.9734121,71.3469684 81.0600469,71.3103866 C81.1649205,71.2646595 81.2697942,71.2143596 81.3701081,71.159487 C81.4567429,71.1137599 81.5524971,71.06346 81.6436916,71.0223056 C82.0814252,70.8256788 82.514599,70.6153339 82.9705715,70.3775527 C83.0754451,70.3226802 83.1803188,70.2723803 83.2897522,70.2266531 C83.4128647,70.1717806 83.5496565,70.1077625 83.6773288,70.0300264 C83.7366052,69.9980174 83.7958816,69.9614357 83.8414788,69.9202812 C83.9007553,69.8836995 83.9600317,69.8471178 84.0193081,69.8059633 C84.2792124,69.6550637 84.5254375,69.4813006 84.7807821,69.3075374 L85.013328,69.1474923 C85.0908434,69.0926198 85.1729184,69.0423199 85.2595532,68.9874473 L85.3461879,68.928002 C85.4875394,68.8411204 85.6288909,68.7496661 85.7702423,68.6444937 L85.8523174,68.5759029 C86.536276,68.0637588 87.2384736,67.4601604 87.9361115,66.7833986 L88.0501046,66.6690807 C88.0820227,66.632499 88.1139407,66.5959173 88.1504185,66.5639083 C88.6611077,66.0517642 89.1489982,65.5167565 89.6095304,64.9588852 C89.6232095,64.9360217 89.6414484,64.9177308 89.6551276,64.8994399 L89.7508818,64.7988402 C89.8283971,64.7073859 89.9013527,64.6113589 89.9697486,64.5153319 L90.311728,64.0672058 C90.4166016,63.9437425 90.5123558,63.8111337 90.60811,63.678525 C90.9592088,63.1938172 91.2647104,62.7456911 91.5337341,62.297565 L91.5747716,62.2152561 C91.5930105,62.1786744 91.6112494,62.1420927 91.6294883,62.1100837 C92.577911,60.5187788 93.3667434,58.7262744 93.9731867,56.7965886 L94.0051048,56.7051343 C94.2467702,55.9094818 94.4519578,55.1001113 94.6206676,54.3090315 L94.7209816,53.8609054 C94.8942511,52.9417897 95.0219234,52.0821192 95.1085582,51.2315942 L95.1359165,50.9983857 C95.2362304,49.9512339 95.2818277,49.0092546 95.2818277,48.1221479 C95.2818277,37.6323392 91.2236729,27.3254391 87.8129989,20.5303844 L87.8129989,20.5303844 Z" id="Fill-1" fill="#8CBFB3" sketch:type="MSShapeGroup" mask="url(#mask-2)"></path>
                    </g>
                    <g id="Group-6">
                        <mask id="mask-4" sketch:name="Clip 5" fill="white">
                            <use xlink:href="#path-3"></use>
                        </mask>
                        <g id="Clip-5"></g>
                        <path d="M32.2545794,106.31197 L32.3548933,137.072625 L29.3226765,137.081771 C28.8074276,137.086343 28.3833733,136.665654 28.3833733,136.144364 L28.3104177,115.192183 C28.3104177,114.86752 28.3195371,114.515421 28.337776,114.145031 C28.3605746,113.774641 28.3833733,113.395106 28.4107316,113.006425 L18.2653445,131.827721 C17.909686,132.531919 17.3625191,132.884018 16.6238437,132.884018 L15.9809225,132.888591 C15.2422472,132.888591 14.6996399,132.541065 14.3531009,131.841439 L3.88853308,113.024716 C3.97516785,113.824941 4.02076509,114.574867 4.02532482,115.274492 L4.09372068,136.226673 C4.09372068,136.747963 3.67422603,137.168652 3.15897716,137.173225 L0.103961719,137.182371 L-0.000911944906,106.421715 L3.37328421,106.407997 C3.77453997,106.407997 4.08460123,106.444579 4.30346801,106.522315 C4.52689451,106.600051 4.73664184,106.819542 4.93726972,107.176213 L15.2513666,125.563101 C15.4519945,125.933491 15.6389432,126.326745 15.8122127,126.738289 C15.9809225,127.154406 16.1496323,127.56595 16.304663,127.982068 C16.6010451,127.136115 16.9475841,126.322172 17.3442802,125.535665 L27.3437561,107.098477 C27.526145,106.741805 27.7313327,106.522315 27.9501994,106.444579 C28.1736259,106.366843 28.4791275,106.325688 28.8803832,106.321116 L32.2545794,106.31197 Z" id="Fill-4" fill="#FFFFFF" sketch:type="MSShapeGroup" mask="url(#mask-4)"></path>
                    </g>
                    <path d="M46.2205597,137.026898 L42.9056399,137.036044 C42.2125618,137.040616 41.6471559,136.478172 41.6471559,135.78312 L41.546842,106.279961 L44.8617617,106.270816 C45.5548399,106.266243 46.1202457,106.828687 46.1202457,107.528312 L46.2205597,137.026898 Z" id="Fill-7" fill="#FFFFFF" sketch:type="MSShapeGroup"></path>
                    <path d="M80.5083202,106.150553 L80.6086341,136.911209 L78.3059733,136.920354 C77.945755,136.920354 77.6539327,136.856336 77.416827,136.7283 C77.1797213,136.600264 76.9426156,136.394492 76.7009502,136.110983 L59.3010414,113.700106 C59.3283998,114.084214 59.3557581,114.46375 59.3785567,114.83414 C59.4013554,115.204529 59.4150345,115.552056 59.4150345,115.881291 L59.4834304,136.03782 C59.4834304,136.559109 59.0639357,136.984372 58.5441271,136.984372 L55.4891117,136.99809 L55.3887978,106.232862 L57.7370559,106.22829 C58.1383117,106.223717 58.4346938,106.269444 58.6353216,106.360898 C58.8359495,106.456925 59.0548163,106.66727 59.3010414,106.991933 L76.7419877,129.425674 C76.6963905,129.014129 76.6644724,128.61173 76.6416738,128.218477 C76.6188752,127.825223 76.605196,127.454833 76.605196,127.116453 L76.5368001,107.106251 C76.5368001,106.584961 76.9562948,106.164272 77.4761034,106.159699 L80.5083202,106.150553 Z" id="Fill-9" fill="#FFFFFF" sketch:type="MSShapeGroup"></path>
                    <path d="M110.724703,109.862684 L100.985131,109.894693 L101.071766,136.841703 L97.8981976,136.855421 C97.1504028,136.855421 96.5439594,136.251823 96.5393997,135.501898 L96.4573247,109.908411 L86.6721558,109.944992 L86.6584767,106.131348 L110.711024,106.049039 L110.724703,109.862684 Z" id="Fill-11" fill="#FFFFFF" sketch:type="MSShapeGroup"></path>
                    <g id="Group-15" transform="translate(0.000000, 3.245906)">
                        <mask id="mask-6" sketch:name="Clip 14" fill="white">
                            <use xlink:href="#path-5"></use>
                        </mask>
                        <g id="Clip-14"></g>
                        <path d="M142.661013,107.7092 C142.519662,107.951554 142.369191,108.129889 142.21416,108.244207 C142.05913,108.363098 141.858502,108.41797 141.616836,108.41797 C141.361492,108.422543 141.069669,108.303653 140.741369,108.070444 C140.413069,107.832663 140.002694,107.572018 139.510244,107.279364 C139.017793,106.991283 138.429589,106.726066 137.74563,106.492857 C137.061672,106.259649 136.240921,106.145331 135.287939,106.149904 C134.389673,106.149904 133.600841,106.273367 132.926001,106.511148 C132.251162,106.748929 131.685756,107.069019 131.234344,107.480564 C130.778371,107.887536 130.436392,108.367671 130.199286,108.916396 C129.96674,109.469695 129.852747,110.064148 129.852747,110.708901 C129.857307,111.536562 130.071614,112.22247 130.491109,112.76205 C130.915163,113.306203 131.46689,113.768047 132.150848,114.147583 C132.834807,114.531691 133.61452,114.865499 134.485427,115.149007 C135.351775,115.432516 136.245481,115.725169 137.157426,116.026969 C138.069371,116.33334 138.958517,116.68544 139.829424,117.078693 C140.700332,117.476519 141.480045,117.979518 142.164003,118.583116 C142.847962,119.186715 143.404248,119.927495 143.828303,120.805456 C144.247797,121.683417 144.462105,122.758005 144.466664,124.024647 C144.471224,125.382744 144.243238,126.653959 143.787265,127.842865 C143.326733,129.027198 142.656454,130.065204 141.776427,130.956884 C140.8964,131.84399 139.815745,132.543616 138.525343,133.05576 C137.239501,133.563331 135.775829,133.823976 134.138888,133.828549 C133.158547,133.833122 132.201005,133.741667 131.275381,133.549613 C130.349757,133.362132 129.47429,133.092342 128.64442,132.744815 C127.81911,132.397289 127.043957,131.981172 126.32352,131.487319 C125.603084,130.998038 124.955603,130.449312 124.385637,129.836568 L125.680599,127.646238 C125.808271,127.472475 125.963302,127.330721 126.141131,127.216403 C126.318961,127.102085 126.519589,127.042639 126.747575,127.042639 C127.048517,127.042639 127.390496,127.198112 127.787192,127.509056 C128.179328,127.824574 128.662659,128.167527 129.241744,128.54249 C129.820829,128.922025 130.509347,129.264979 131.316419,129.575924 C132.12349,129.886868 133.103831,130.042341 134.257441,130.037768 C135.196744,130.033195 136.035734,129.905159 136.774409,129.65366 C137.513084,129.402161 138.137767,129.040916 138.639336,128.579072 C139.145466,128.112655 139.528483,127.550211 139.797506,126.89174 C140.06653,126.233269 140.198762,125.506207 140.198762,124.705982 C140.194202,123.805157 139.984455,123.06895 139.56952,122.501933 C139.154585,121.930344 138.607418,121.454782 137.9189,121.070673 C137.234941,120.686565 136.459788,120.361903 135.588881,120.092112 C134.717973,119.826895 133.828827,119.547959 132.916882,119.255306 C132.004937,118.967224 131.111231,118.628844 130.244883,118.249308 C129.373976,117.8652 128.594263,117.362201 127.910304,116.744885 C127.221786,116.127568 126.674619,115.350207 126.255124,114.417373 C125.84019,113.479966 125.630442,112.327642 125.625882,110.9604 C125.621323,109.858376 125.83107,108.792933 126.255124,107.764072 C126.679179,106.735211 127.299301,105.820668 128.115492,105.025016 C128.931683,104.229363 129.939382,103.593756 131.13403,103.109048 C132.328678,102.628913 133.692035,102.381986 135.233222,102.377414 C136.952238,102.372841 138.539022,102.642631 139.989015,103.186784 C141.434447,103.730937 142.692931,104.517444 143.764467,105.541733 L142.661013,107.7092 Z" id="Fill-13" fill="#FFFFFF" sketch:type="MSShapeGroup" mask="url(#mask-6)"></path>
                    </g>
                    <path d="M121.084397,107.643545 C121.088957,109.111386 119.907988,110.304865 118.444316,110.309438 C116.976085,110.314011 115.785997,109.129677 115.781437,107.661836 C115.776878,106.193994 116.962406,105.000515 118.426077,104.995943 C119.889749,104.99137 121.079837,106.175703 121.084397,107.643545" id="Fill-16" fill="#8CBFB3" sketch:type="MSShapeGroup"></path>
                </g>
            </g>
        </g>
    </g>
</svg>